<mxfile host="65bd71144e">
    <diagram name="Seite-1" id="oE7aV51rH-VBvKwAN4Yb">
        <mxGraphModel dx="1210" dy="1023" grid="1" gridSize="10" guides="1" tooltips="1" connect="1" arrows="1" fold="1" page="1" pageScale="1" pageWidth="1000" pageHeight="1000" math="0" shadow="0">
            <root>
                <mxCell id="0"/>
                <mxCell id="1" parent="0"/>
                <mxCell id="5b4XTh0Qs_141JhISzeL-9" value="=" style="whiteSpace=wrap;html=1;aspect=fixed;" parent="1" vertex="1">
                    <mxGeometry x="900" y="900" width="80" height="80" as="geometry"/>
                </mxCell>
                <mxCell id="5b4XTh0Qs_141JhISzeL-10" value="," style="whiteSpace=wrap;html=1;aspect=fixed;" parent="1" vertex="1">
                    <mxGeometry x="800" y="900" width="80" height="80" as="geometry"/>
                </mxCell>
                <mxCell id="5b4XTh0Qs_141JhISzeL-36" value="" style="edgeStyle=orthogonalEdgeStyle;rounded=0;orthogonalLoop=1;jettySize=auto;html=1;" parent="1" source="5b4XTh0Qs_141JhISzeL-11" target="5b4XTh0Qs_141JhISzeL-10" edge="1">
                    <mxGeometry relative="1" as="geometry"/>
                </mxCell>
                <mxCell id="5b4XTh0Qs_141JhISzeL-11" value="0" style="whiteSpace=wrap;html=1;aspect=fixed;" parent="1" vertex="1">
                    <mxGeometry x="700" y="900" width="80" height="80" as="geometry"/>
                </mxCell>
                <mxCell id="5b4XTh0Qs_141JhISzeL-12" value="." style="whiteSpace=wrap;html=1;aspect=fixed;" parent="1" vertex="1">
                    <mxGeometry x="600" y="900" width="80" height="80" as="geometry"/>
                </mxCell>
                <mxCell id="5b4XTh0Qs_141JhISzeL-13" value="sqrt" style="whiteSpace=wrap;html=1;aspect=fixed;" parent="1" vertex="1">
                    <mxGeometry x="500" y="900" width="80" height="80" as="geometry"/>
                </mxCell>
                <mxCell id="5b4XTh0Qs_141JhISzeL-16" value="+" style="whiteSpace=wrap;html=1;aspect=fixed;" parent="1" vertex="1">
                    <mxGeometry x="900" y="800" width="80" height="80" as="geometry"/>
                </mxCell>
                <mxCell id="5b4XTh0Qs_141JhISzeL-17" value="3" style="whiteSpace=wrap;html=1;aspect=fixed;" parent="1" vertex="1">
                    <mxGeometry x="800" y="800" width="80" height="80" as="geometry"/>
                </mxCell>
                <mxCell id="5b4XTh0Qs_141JhISzeL-18" value="2" style="whiteSpace=wrap;html=1;aspect=fixed;" parent="1" vertex="1">
                    <mxGeometry x="700" y="800" width="80" height="80" as="geometry"/>
                </mxCell>
                <mxCell id="5b4XTh0Qs_141JhISzeL-19" value="1" style="whiteSpace=wrap;html=1;aspect=fixed;" parent="1" vertex="1">
                    <mxGeometry x="600" y="800" width="80" height="80" as="geometry"/>
                </mxCell>
                <mxCell id="5b4XTh0Qs_141JhISzeL-20" value="1/" style="whiteSpace=wrap;html=1;aspect=fixed;" parent="1" vertex="1">
                    <mxGeometry x="500" y="800" width="80" height="80" as="geometry"/>
                </mxCell>
                <mxCell id="5b4XTh0Qs_141JhISzeL-21" value="-" style="whiteSpace=wrap;html=1;aspect=fixed;" parent="1" vertex="1">
                    <mxGeometry x="900" y="700" width="80" height="80" as="geometry"/>
                </mxCell>
                <mxCell id="5b4XTh0Qs_141JhISzeL-22" value="6" style="whiteSpace=wrap;html=1;aspect=fixed;" parent="1" vertex="1">
                    <mxGeometry x="800" y="700" width="80" height="80" as="geometry"/>
                </mxCell>
                <mxCell id="5b4XTh0Qs_141JhISzeL-23" value="5" style="whiteSpace=wrap;html=1;aspect=fixed;" parent="1" vertex="1">
                    <mxGeometry x="700" y="700" width="80" height="80" as="geometry"/>
                </mxCell>
                <mxCell id="5b4XTh0Qs_141JhISzeL-24" value="4" style="whiteSpace=wrap;html=1;aspect=fixed;" parent="1" vertex="1">
                    <mxGeometry x="600" y="700" width="80" height="80" as="geometry"/>
                </mxCell>
                <mxCell id="5b4XTh0Qs_141JhISzeL-25" value="e" style="whiteSpace=wrap;html=1;aspect=fixed;" parent="1" vertex="1">
                    <mxGeometry x="500" y="700" width="80" height="80" as="geometry"/>
                </mxCell>
                <mxCell id="5b4XTh0Qs_141JhISzeL-26" value="*" style="whiteSpace=wrap;html=1;aspect=fixed;" parent="1" vertex="1">
                    <mxGeometry x="900" y="600" width="80" height="80" as="geometry"/>
                </mxCell>
                <mxCell id="5b4XTh0Qs_141JhISzeL-27" value="9" style="whiteSpace=wrap;html=1;aspect=fixed;" parent="1" vertex="1">
                    <mxGeometry x="800" y="600" width="80" height="80" as="geometry"/>
                </mxCell>
                <mxCell id="5b4XTh0Qs_141JhISzeL-28" value="8" style="whiteSpace=wrap;html=1;aspect=fixed;" parent="1" vertex="1">
                    <mxGeometry x="700" y="600" width="80" height="80" as="geometry"/>
                </mxCell>
                <mxCell id="5b4XTh0Qs_141JhISzeL-29" value="7" style="whiteSpace=wrap;html=1;aspect=fixed;" parent="1" vertex="1">
                    <mxGeometry x="600" y="600" width="80" height="80" as="geometry"/>
                </mxCell>
                <mxCell id="5b4XTh0Qs_141JhISzeL-30" value="pi" style="whiteSpace=wrap;html=1;aspect=fixed;" parent="1" vertex="1">
                    <mxGeometry x="500" y="600" width="80" height="80" as="geometry"/>
                </mxCell>
                <mxCell id="5b4XTh0Qs_141JhISzeL-31" value="/" style="whiteSpace=wrap;html=1;aspect=fixed;" parent="1" vertex="1">
                    <mxGeometry x="900" y="500" width="80" height="80" as="geometry"/>
                </mxCell>
                <mxCell id="5b4XTh0Qs_141JhISzeL-32" value="^2" style="whiteSpace=wrap;html=1;aspect=fixed;" parent="1" vertex="1">
                    <mxGeometry x="800" y="500" width="80" height="80" as="geometry"/>
                </mxCell>
                <mxCell id="5b4XTh0Qs_141JhISzeL-33" value=")" style="whiteSpace=wrap;html=1;aspect=fixed;" parent="1" vertex="1">
                    <mxGeometry x="700" y="500" width="80" height="80" as="geometry"/>
                </mxCell>
                <mxCell id="5b4XTh0Qs_141JhISzeL-34" value="(" style="whiteSpace=wrap;html=1;aspect=fixed;" parent="1" vertex="1">
                    <mxGeometry x="600" y="500" width="80" height="80" as="geometry"/>
                </mxCell>
                <mxCell id="5b4XTh0Qs_141JhISzeL-35" value="!" style="whiteSpace=wrap;html=1;aspect=fixed;" parent="1" vertex="1">
                    <mxGeometry x="500" y="500" width="80" height="80" as="geometry"/>
                </mxCell>
                <mxCell id="5b4XTh0Qs_141JhISzeL-37" value="^" style="whiteSpace=wrap;html=1;aspect=fixed;" parent="1" vertex="1">
                    <mxGeometry x="900" y="400" width="80" height="80" as="geometry"/>
                </mxCell>
                <mxCell id="5b4XTh0Qs_141JhISzeL-38" value="%" style="whiteSpace=wrap;html=1;aspect=fixed;" parent="1" vertex="1">
                    <mxGeometry x="800" y="400" width="80" height="80" as="geometry"/>
                </mxCell>
                <mxCell id="5b4XTh0Qs_141JhISzeL-39" value="&amp;lt;-" style="whiteSpace=wrap;html=1;aspect=fixed;" parent="1" vertex="1">
                    <mxGeometry x="700" y="400" width="80" height="80" as="geometry"/>
                </mxCell>
                <mxCell id="5b4XTh0Qs_141JhISzeL-40" value="CE" style="whiteSpace=wrap;html=1;aspect=fixed;" parent="1" vertex="1">
                    <mxGeometry x="600" y="400" width="80" height="80" as="geometry"/>
                </mxCell>
                <mxCell id="5b4XTh0Qs_141JhISzeL-41" value="C" style="whiteSpace=wrap;html=1;aspect=fixed;" parent="1" vertex="1">
                    <mxGeometry x="500" y="400" width="80" height="80" as="geometry"/>
                </mxCell>
                <mxCell id="5b4XTh0Qs_141JhISzeL-42" value="exp +" style="whiteSpace=wrap;html=1;aspect=fixed;" parent="1" vertex="1">
                    <mxGeometry x="20" y="400" width="80" height="80" as="geometry"/>
                </mxCell>
                <mxCell id="5b4XTh0Qs_141JhISzeL-43" value="trig +&lt;span style=&quot;color: rgba(0, 0, 0, 0); font-family: monospace; font-size: 0px; text-align: start; text-wrap-mode: nowrap;&quot;&gt;%3CmxGraphModel%3E%3Croot%3E%3CmxCell%20id%3D%220%22%2F%3E%3CmxCell%20id%3D%221%22%20parent%3D%220%22%2F%3E%3CmxCell%20id%3D%222%22%20value%3D%22exp%20%26amp%3Bgt%3B%22%20style%3D%22whiteSpace%3Dwrap%3Bhtml%3D1%3Baspect%3Dfixed%3B%22%20vertex%3D%221%22%20parent%3D%221%22%3E%3CmxGeometry%20x%3D%2220%22%20y%3D%22400%22%20width%3D%2280%22%20height%3D%2280%22%20as%3D%22geometry%22%2F%3E%3C%2FmxCell%3E%3C%2Froot%3E%3C%2FmxGraphModel%3E&lt;/span&gt;&lt;span style=&quot;color: rgba(0, 0, 0, 0); font-family: monospace; font-size: 0px; text-align: start; text-wrap-mode: nowrap;&quot;&gt;%3CmxGraphModel%3E%3Croot%3E%3CmxCell%20id%3D%220%22%2F%3E%3CmxCell%20id%3D%221%22%20parent%3D%220%22%2F%3E%3CmxCell%20id%3D%222%22%20value%3D%22exp%20%26amp%3Bgt%3B%22%20style%3D%22whiteSpace%3Dwrap%3Bhtml%3D1%3Baspect%3Dfixed%3B%22%20vertex%3D%221%22%20parent%3D%221%22%3E%3CmxGeometry%20x%3D%2220%22%20y%3D%22400%22%20width%3D%2280%22%20height%3D%2280%22%20as%3D%22geometry%22%2F%3E%3C%2FmxCell%3E%3C%2Froot%3E%3C%2FmxGraphModel%3&lt;/span&gt;" style="whiteSpace=wrap;html=1;aspect=fixed;" parent="1" vertex="1">
                    <mxGeometry x="20" y="500" width="80" height="80" as="geometry"/>
                </mxCell>
                <mxCell id="5b4XTh0Qs_141JhISzeL-44" value="complex +" style="whiteSpace=wrap;html=1;aspect=fixed;" parent="1" vertex="1">
                    <mxGeometry x="20" y="600" width="80" height="80" as="geometry"/>
                </mxCell>
                <mxCell id="5b4XTh0Qs_141JhISzeL-45" value="round +" style="whiteSpace=wrap;html=1;aspect=fixed;" parent="1" vertex="1">
                    <mxGeometry x="20" y="700" width="80" height="80" as="geometry"/>
                </mxCell>
                <mxCell id="5b4XTh0Qs_141JhISzeL-46" value="calculus +" style="whiteSpace=wrap;html=1;aspect=fixed;" parent="1" vertex="1">
                    <mxGeometry x="20" y="800" width="80" height="80" as="geometry"/>
                </mxCell>
                <mxCell id="5b4XTh0Qs_141JhISzeL-47" value="other +" style="whiteSpace=wrap;html=1;aspect=fixed;" parent="1" vertex="1">
                    <mxGeometry x="20" y="900" width="80" height="80" as="geometry"/>
                </mxCell>
                <mxCell id="5b4XTh0Qs_141JhISzeL-48" value="" style="endArrow=none;html=1;rounded=0;" parent="1" edge="1">
                    <mxGeometry width="50" height="50" relative="1" as="geometry">
                        <mxPoint x="480" y="980" as="sourcePoint"/>
                        <mxPoint x="480" y="390" as="targetPoint"/>
                    </mxGeometry>
                </mxCell>
                <mxCell id="5b4XTh0Qs_141JhISzeL-49" value="" style="endArrow=none;html=1;rounded=0;" parent="1" edge="1">
                    <mxGeometry width="50" height="50" relative="1" as="geometry">
                        <mxPoint x="10" y="390" as="sourcePoint"/>
                        <mxPoint x="990" y="390" as="targetPoint"/>
                    </mxGeometry>
                </mxCell>
                <mxCell id="5b4XTh0Qs_141JhISzeL-50" value="Clear" style="whiteSpace=wrap;html=1;aspect=fixed;" parent="1" vertex="1">
                    <mxGeometry x="20" y="20" width="80" height="80" as="geometry"/>
                </mxCell>
                <mxCell id="5b4XTh0Qs_141JhISzeL-51" value="Settings" style="whiteSpace=wrap;html=1;aspect=fixed;" parent="1" vertex="1">
                    <mxGeometry x="20" y="120" width="80" height="80" as="geometry"/>
                </mxCell>
                <mxCell id="5b4XTh0Qs_141JhISzeL-52" value="Menu &amp;gt;" style="whiteSpace=wrap;html=1;aspect=fixed;" parent="1" vertex="1">
                    <mxGeometry x="110" y="20" width="80" height="80" as="geometry"/>
                </mxCell>
                <mxCell id="5b4XTh0Qs_141JhISzeL-55" value="" style="rounded=0;whiteSpace=wrap;html=1;" parent="1" vertex="1">
                    <mxGeometry x="20" y="320" width="960" height="60" as="geometry"/>
                </mxCell>
                <mxCell id="5b4XTh0Qs_141JhISzeL-56" value="" style="rounded=0;whiteSpace=wrap;html=1;" parent="1" vertex="1">
                    <mxGeometry x="210" y="20" width="770" height="230" as="geometry"/>
                </mxCell>
                <mxCell id="2" value="Mode &amp;gt;" style="whiteSpace=wrap;html=1;aspect=fixed;" vertex="1" parent="1">
                    <mxGeometry x="110" y="120" width="80" height="80" as="geometry"/>
                </mxCell>
                <mxCell id="3" value="" style="rounded=0;whiteSpace=wrap;html=1;" vertex="1" parent="1">
                    <mxGeometry x="20" y="260" width="910" height="50" as="geometry"/>
                </mxCell>
                <mxCell id="4" value="info" style="whiteSpace=wrap;html=1;aspect=fixed;" vertex="1" parent="1">
                    <mxGeometry x="930" y="260" width="50" height="50" as="geometry"/>
                </mxCell>
            </root>
        </mxGraphModel>
    </diagram>
</mxfile>